<svg xmlns="http://www.w3.org/2000/svg" xmlns:xlink="http://www.w3.org/1999/xlink" width="1323" zoomAndPan="magnify" viewBox="0 0 992.25 1180.500004" height="1574" preserveAspectRatio="xMidYMid meet" version="1.2"><defs><clipPath id="baa5f45c43"><path d="M 65.222656 187.070312 L 146.269531 187.070312 L 146.269531 1179.292969 L 65.222656 1179.292969 Z M 65.222656 187.070312 "/></clipPath><clipPath id="b564847221"><path d="M 65.222656 1138.769531 L 65.222656 227.707031 C 65.222656 205.328125 83.363281 187.183594 105.746094 187.183594 C 128.125 187.183594 146.269531 205.328125 146.269531 227.707031 L 146.269531 1138.769531 C 146.269531 1161.148438 128.125 1179.292969 105.746094 1179.292969 C 83.363281 1179.292969 65.222656 1161.148438 65.222656 1138.769531 Z M 65.222656 1138.769531 "/></clipPath><clipPath id="a491c1dd56"><path d="M 65.207031 76.402344 L 140.464844 76.402344 L 140.464844 834.542969 L 65.207031 834.542969 Z M 65.207031 76.402344 "/></clipPath><clipPath id="ad3ba816c2"><path d="M 140.464844 265.882812 L 140.464844 644.84375 L 65.207031 834.324219 L 65.207031 76.402344 Z M 140.464844 265.882812 "/></clipPath><clipPath id="6676713019"><path d="M 64 78 L 293 78 L 293 382 L 64 382 Z M 64 78 "/></clipPath><clipPath id="4417eec494"><path d="M 227.601562 430.480469 L -0.09375 127.375 L 64.839844 78.597656 L 292.535156 381.703125 Z M 227.601562 430.480469 "/></clipPath><clipPath id="1e566a4424"><path d="M 113.796875 278.984375 L 64.925781 78.710938 L 292.535156 381.703125 Z M 113.796875 278.984375 "/></clipPath><clipPath id="329d7e23dd"><path d="M 97 203 L 835 203 L 835 1164 L 97 1164 Z M 97 203 "/></clipPath><clipPath id="948c1d7916"><path d="M 785.75 1179.296875 L 81.621094 235.605469 L 146.582031 187.136719 L 850.710938 1130.828125 Z M 785.75 1179.296875 "/></clipPath><clipPath id="f40e48a78d"><path d="M 761.515625 1146.816406 L 105.894531 268.136719 C 92.507812 250.195312 96.199219 224.804688 114.140625 211.421875 C 132.078125 198.035156 157.46875 201.726562 170.855469 219.664062 L 826.476562 1098.347656 C 839.859375 1116.285156 836.167969 1141.675781 818.230469 1155.0625 C 800.292969 1168.445312 774.898438 1164.753906 761.515625 1146.816406 Z M 761.515625 1146.816406 "/></clipPath><clipPath id="b4f7c2a03d"><path d="M 844.90625 0.199219 L 925.953125 0.199219 L 925.953125 992.417969 L 844.90625 992.417969 Z M 844.90625 0.199219 "/></clipPath><clipPath id="611c4ac40c"><path d="M 925.953125 40.722656 L 925.953125 951.78125 C 925.953125 974.164062 907.8125 992.308594 885.429688 992.308594 C 863.050781 992.308594 844.90625 974.164062 844.90625 951.78125 L 844.90625 40.722656 C 844.90625 18.339844 863.050781 0.199219 885.429688 0.199219 C 907.8125 0.199219 925.953125 18.339844 925.953125 40.722656 Z M 925.953125 40.722656 "/></clipPath><clipPath id="ad8d1f03a3"><path d="M 850.707031 345 L 925.960938 345 L 925.960938 1103.082031 L 850.707031 1103.082031 Z M 850.707031 345 "/></clipPath><clipPath id="7ab692633c"><path d="M 850.707031 913.601562 L 850.707031 534.640625 L 925.960938 345.160156 L 925.960938 1103.082031 Z M 850.707031 913.601562 "/></clipPath><clipPath id="7b36611a0d"><path d="M 698 797 L 927 797 L 927 1101 L 698 1101 Z M 698 797 "/></clipPath><clipPath id="d111e5e14a"><path d="M 763.566406 749.007812 L 991.261719 1052.113281 L 926.328125 1100.890625 L 698.636719 797.785156 Z M 763.566406 749.007812 "/></clipPath><clipPath id="4259239c36"><path d="M 877.371094 900.503906 L 926.246094 1100.777344 L 698.636719 797.785156 Z M 877.371094 900.503906 "/></clipPath><clipPath id="6a4dc46504"><path d="M 156 16 L 894 16 L 894 977 L 156 977 Z M 156 16 "/></clipPath><clipPath id="c04b77dacc"><path d="M 205.433594 0.195312 L 909.5625 943.886719 L 844.601562 992.355469 L 140.476562 48.664062 Z M 205.433594 0.195312 "/></clipPath><clipPath id="d68959709e"><path d="M 229.667969 32.675781 L 885.289062 911.355469 C 898.675781 929.292969 894.984375 954.6875 877.046875 968.070312 C 859.109375 981.453125 833.714844 977.761719 820.332031 959.824219 L 164.710938 81.144531 C 151.324219 63.207031 155.015625 37.8125 172.953125 24.429688 C 190.894531 11.046875 216.285156 14.738281 229.667969 32.675781 Z M 229.667969 32.675781 "/></clipPath></defs><g id="5b5de12192"><g clip-rule="nonzero" clip-path="url(#baa5f45c43)"><g clip-rule="nonzero" clip-path="url(#b564847221)"><path style=" stroke:none;fill-rule:nonzero;fill:#86ceeb;fill-opacity:1;" d="M 65.222656 1179.292969 L 65.222656 187.070312 L 146.269531 187.070312 L 146.269531 1179.292969 Z M 65.222656 1179.292969 "/></g></g><g clip-rule="nonzero" clip-path="url(#a491c1dd56)"><g clip-rule="nonzero" clip-path="url(#ad3ba816c2)"><path style=" stroke:none;fill-rule:nonzero;fill:#86ceeb;fill-opacity:1;" d="M 140.464844 76.402344 L 140.464844 834.25 L 65.207031 834.25 L 65.207031 76.402344 Z M 140.464844 76.402344 "/></g></g><g clip-rule="nonzero" clip-path="url(#6676713019)"><g clip-rule="nonzero" clip-path="url(#4417eec494)"><g clip-rule="nonzero" clip-path="url(#1e566a4424)"><path style=" stroke:none;fill-rule:nonzero;fill:#86ceeb;fill-opacity:1;" d="M 227.601562 430.480469 L -0.09375 127.375 L 64.839844 78.597656 L 292.535156 381.703125 Z M 227.601562 430.480469 "/></g></g></g><g clip-rule="nonzero" clip-path="url(#329d7e23dd)"><g clip-rule="nonzero" clip-path="url(#948c1d7916)"><g clip-rule="nonzero" clip-path="url(#f40e48a78d)"><path style=" stroke:none;fill-rule:nonzero;fill:#86ceeb;fill-opacity:1;" d="M 785.75 1179.296875 L 81.621094 235.605469 L 146.582031 187.136719 L 850.710938 1130.828125 Z M 785.75 1179.296875 "/></g></g></g><g clip-rule="nonzero" clip-path="url(#b4f7c2a03d)"><g clip-rule="nonzero" clip-path="url(#611c4ac40c)"><path style=" stroke:none;fill-rule:nonzero;fill:#86ceeb;fill-opacity:1;" d="M 925.953125 0.199219 L 925.953125 992.417969 L 844.90625 992.417969 L 844.90625 0.199219 Z M 925.953125 0.199219 "/></g></g><g clip-rule="nonzero" clip-path="url(#ad8d1f03a3)"><g clip-rule="nonzero" clip-path="url(#7ab692633c)"><path style=" stroke:none;fill-rule:nonzero;fill:#86ceeb;fill-opacity:1;" d="M 850.707031 1103.082031 L 850.707031 345.234375 L 925.960938 345.234375 L 925.960938 1103.082031 Z M 850.707031 1103.082031 "/></g></g><g clip-rule="nonzero" clip-path="url(#7b36611a0d)"><g clip-rule="nonzero" clip-path="url(#d111e5e14a)"><g clip-rule="nonzero" clip-path="url(#4259239c36)"><path style=" stroke:none;fill-rule:nonzero;fill:#86ceeb;fill-opacity:1;" d="M 763.566406 749.007812 L 991.261719 1052.113281 L 926.328125 1100.890625 L 698.636719 797.785156 Z M 763.566406 749.007812 "/></g></g></g><g clip-rule="nonzero" clip-path="url(#6a4dc46504)"><g clip-rule="nonzero" clip-path="url(#c04b77dacc)"><g clip-rule="nonzero" clip-path="url(#d68959709e)"><path style=" stroke:none;fill-rule:nonzero;fill:#86ceeb;fill-opacity:1;" d="M 205.433594 0.195312 L 909.5625 943.886719 L 844.601562 992.355469 L 140.476562 48.664062 Z M 205.433594 0.195312 "/></g></g></g></g></svg>